<?xml version="1.0" standalone="no"?>
<!DOCTYPE svg PUBLIC "-//W3C//DTD SVG 20010904//EN"
 "http://www.w3.org/TR/2001/REC-SVG-20010904/DTD/svg10.dtd">
<svg version="1.0" xmlns="http://www.w3.org/2000/svg"
 width="60pt" height="50pt" viewBox="0 0 418.000000 324.000000"
 preserveAspectRatio="xMidYMid meet">
<metadata>
Created by potrace 1.10, written by Peter Selinger 2001-2011
</metadata>
<g transform="translate(0.000000,324.000000) scale(0.050000,-0.050000)"
fill="#000000" stroke="none">
<path d="M4690 6329 c-66 -27 -155 -67 -198 -89 -87 -46 -113 -38 -74 23 69
111 -27 110 -152 -1 -192 -172 -387 -291 -656 -399 -408 -165 -623 -311 -671
-457 -25 -76 3 -272 42 -297 40 -24 16 -85 -56 -143 -316 -256 -300 -647 40
-1000 94 -96 134 -152 123 -170 -16 -27 -130 -178 -148 -196 -5 -5 -20 -28
-32 -50 -12 -22 -57 -58 -100 -80 -174 -90 -463 -416 -569 -644 -33 -68 -69
-113 -109 -132 -166 -81 -450 -422 -450 -542 0 -84 -245 46 -403 213 -130 138
-137 183 -41 276 101 97 112 98 171 4 131 -208 222 -171 228 95 4 141 17 233
38 280 18 39 54 114 80 169 84 176 6 358 -173 404 -27 8 -61 29 -74 47 -26 37
-450 344 -536 389 -265 137 -596 -605 -597 -1339 -1 -577 155 -984 505 -1316
151 -144 153 -136 -30 -130 -126 5 -156 0 -175 -28 -60 -93 75 -213 242 -215
106 -1 108 -28 7 -114 -343 -293 76 -386 488 -108 83 56 86 53 75 -49 -36
-315 272 -189 486 199 24 42 38 51 169 111 177 79 361 254 428 405 8 18 18 13
36 -15 14 -22 63 -78 109 -125 72 -75 84 -100 93 -200 15 -150 40 -258 78
-345 75 -166 82 -367 26 -706 -9 -56 -9 -56 95 -50 l105 6 4 238 c3 131 -3
252 -12 268 -10 17 -10 54 -2 84 10 34 6 65 -12 90 -16 21 -28 29 -28 19 0
-47 -60 75 -71 145 -14 83 31 226 70 226 40 0 21 61 -24 78 -46 18 -157 141
-274 307 -37 52 -74 95 -81 95 -12 0 -38 54 -92 190 -13 32 -18 24 -24 -40
l-9 -80 -35 102 c-27 78 -32 124 -19 192 9 50 15 177 13 283 -3 139 3 195 21
202 14 5 25 30 25 55 1 59 144 341 210 411 27 30 50 61 50 70 0 8 14 15 31 15
17 0 26 8 20 18 -6 10 5 14 24 9 28 -7 36 -34 38 -139 5 -180 147 -454 147
-282 0 72 56 194 89 194 18 0 49 -71 90 -205 71 -236 167 -445 215 -472 30
-17 31 -28 8 -96 -44 -132 -105 -354 -114 -417 -5 -33 -18 -96 -28 -140 -37
-149 -44 -200 -60 -420 l-17 -220 214 -213 c117 -117 237 -240 266 -274 l53
-62 49 64 c27 36 59 85 72 108 12 24 34 56 48 70 14 15 57 71 95 124 39 53
127 155 197 227 l128 130 -35 128 c-19 71 -43 133 -52 139 -10 6 -18 32 -18
56 0 25 -7 54 -17 64 -15 17 -32 71 -88 269 -11 39 -28 86 -37 105 -10 19 -18
51 -18 71 0 21 -6 43 -13 50 -7 8 -30 51 -50 96 l-37 82 185 189 185 189 53
-66 54 -66 41 90 c23 50 41 105 42 123 0 53 58 62 69 11 33 -151 71 -398 71
-457 0 -124 34 -115 238 63 34 30 162 213 162 232 0 5 15 43 34 84 18 41 35
83 37 94 1 11 12 43 23 70 12 28 26 68 31 90 9 34 11 35 13 4 1 -20 11 -31 22
-24 11 7 20 -6 20 -29 0 -23 14 -47 30 -54 42 -16 174 50 157 78 -9 14 -2 17
22 8 25 -9 54 8 102 62 50 57 69 68 78 45 6 -16 28 -78 49 -137 20 -60 42 -96
48 -80 6 16 12 8 12 -18 1 -25 11 -45 22 -45 11 0 20 -12 20 -27 0 -14 36 -65
80 -113 43 -47 84 -102 91 -122 6 -21 23 -31 40 -25 16 6 29 2 29 -9 0 -10 17
-24 37 -29 20 -5 36 -24 36 -41 0 -30 -16 -33 -198 -36 -19 0 -35 -12 -35 -27
0 -47 -107 -68 -175 -34 -19 10 -63 32 -98 50 -81 43 -87 42 -88 -12 -1 -77
-265 -435 -321 -435 -31 0 -20 38 24 82 22 22 36 53 31 68 -6 15 2 38 18 51
16 13 29 36 29 51 0 16 9 28 20 28 11 0 20 19 20 41 0 25 -9 36 -22 28 -14 -9
-14 2 2 31 15 28 20 88 14 158 -15 155 -23 182 -55 203 -16 10 -21 19 -12 19
10 0 6 14 -8 31 -34 41 -62 -2 -48 -73 45 -227 23 -581 -40 -644 -14 -14 -32
-48 -41 -75 -8 -27 -86 -119 -174 -206 -88 -86 -156 -159 -153 -162 4 -3 48
-18 97 -33 l90 -28 -2 -114 c-2 -63 -16 -135 -32 -160 -16 -25 -58 -122 -94
-216 -36 -93 -74 -191 -84 -216 -10 -25 -18 -67 -18 -94 0 -26 -8 -52 -17 -58
-10 -6 -23 -50 -30 -97 -6 -47 -17 -119 -24 -162 -12 -74 -11 -76 44 -70 32 4
55 18 52 32 -7 36 70 31 90 -6 19 -33 717 -33 860 0 44 11 76 7 97 -10 20 -17
36 -19 45 -6 7 11 84 21 170 23 123 2 180 14 267 55 99 47 114 49 141 22 40
-39 17 -101 -33 -88 -21 6 -50 2 -65 -7 -43 -27 569 -22 673 6 72 19 100 19
130 0 63 -39 183 -32 130 7 -22 17 -70 55 -108 85 -37 30 -79 61 -94 69 -22
14 -116 -19 -253 -88 -19 -9 -52 -17 -74 -17 -21 0 -44 -9 -51 -20 -23 -37
-110 -23 -110 18 0 22 -23 47 -60 62 -70 29 -80 91 -19 110 95 30 561 656 700
940 38 77 71 144 74 148 19 31 33 -39 29 -137 -9 -181 67 -190 150 -16 75 157
86 196 86 316 0 139 0 139 130 52 297 -198 354 -17 91 287 -79 91 -69 95 186
82 243 -13 264 -8 246 65 -36 141 -447 453 -597 453 -17 0 -66 43 -108 95 -82
101 -229 244 -252 244 -7 1 -25 12 -40 26 -39 38 -197 111 -271 125 -36 7 -65
22 -65 33 0 147 -444 566 -595 561 -151 -6 -456 345 -537 616 -49 163 -148
438 -193 536 -39 83 -39 86 -3 126 30 33 32 46 12 74 -37 51 -180 353 -248
524 -105 268 -158 358 -268 459 -137 125 -136 141 10 141 122 0 173 28 151 85
-17 45 -147 75 -326 75 -185 0 -189 3 -93 85 134 115 54 164 -140 84z m-6
-135 c-101 -103 -109 -144 -25 -127 123 24 319 38 370 25 67 -17 47 -52 -29
-52 -174 0 -194 -65 -52 -164 136 -95 222 -225 343 -526 53 -132 118 -280 143
-329 35 -67 41 -92 22 -104 -19 -11 -14 -44 22 -141 26 -69 98 -274 161 -456
163 -471 238 -593 456 -743 112 -78 107 -97 -25 -97 -110 0 -162 19 -238 85
-47 41 -72 45 -72 10 0 -59 65 -330 94 -390 17 -37 26 -72 19 -78 -28 -29
-111 59 -152 162 -51 125 -81 142 -82 46 -1 -73 -43 -245 -65 -267 -8 -8 -14
-29 -15 -46 -2 -105 -199 -405 -199 -303 0 68 -80 217 -169 315 -105 117 -136
105 -118 -46 8 -66 3 -143 -11 -194 -14 -46 -34 -115 -45 -154 -63 -222 -177
-358 -177 -211 0 154 -125 500 -232 641 -35 46 -88 1 -88 -73 0 -19 -8 -56
-18 -81 -10 -25 -28 -84 -41 -131 -29 -109 -53 -107 -102 7 -32 76 -36 106
-19 165 11 40 20 98 20 129 0 31 13 60 31 67 20 8 24 19 11 35 -11 13 -26 70
-33 127 -23 172 -53 94 -79 -205 -18 -202 -67 -380 -149 -539 -64 -124 -86
-131 -120 -36 -100 280 -131 302 -170 120 -19 -90 -51 -62 -51 44 0 105 -69
321 -102 321 -35 0 -208 -188 -245 -265 -47 -100 -83 -95 -110 15 -13 50 -33
131 -46 180 -12 50 -17 131 -10 179 16 120 -10 128 -90 29 -138 -171 -191
-191 -140 -54 39 104 46 196 16 196 -17 0 -33 -7 -36 -15 -28 -63 -237 -181
-237 -133 0 14 82 134 102 148 45 33 139 231 129 272 -6 25 -2 51 10 58 11 8
43 48 70 91 l49 77 115 -58 c184 -93 294 -97 205 -8 -142 142 -13 649 163 648
75 -1 100 -231 45 -401 -140 -427 469 -219 683 233 86 180 148 421 149 573 0
123 6 132 53 85 35 -35 67 -39 67 -9 0 93 -198 147 -318 87 -84 -42 -93 -29
-41 63 42 76 45 153 9 291 -13 49 -7 55 82 85 133 46 406 39 376 -9 -5 -10 13
-18 41 -18 28 0 51 -8 51 -18 0 -10 65 -59 145 -108 80 -50 168 -115 195 -144
28 -30 76 -67 107 -83 l57 -30 -35 59 c-55 93 -219 264 -254 264 -17 0 -36 14
-42 30 -7 17 -25 30 -42 30 -16 0 -56 26 -89 58 -191 187 -512 114 -943 -212
-220 -166 -280 -181 -392 -95 -103 78 -53 280 100 406 40 34 43 83 5 83 -71 0
-232 -199 -232 -286 0 -16 -43 -45 -95 -64 -52 -20 -117 -51 -145 -70 -132
-91 -163 -62 -163 155 -1 87 7 102 91 178 80 73 477 287 532 287 85 0 426 202
570 337 106 100 130 99 70 -3 -27 -45 -34 -75 -21 -83 12 -8 21 -5 21 5 0 11
16 25 35 33 19 7 116 57 215 109 226 121 261 125 154 16z m-468 -958 c94 -94
7 -357 -138 -417 -101 -42 -318 62 -318 152 0 46 64 52 95 9 18 -27 41 -38 65
-30 25 8 45 -2 59 -29 47 -87 221 1 221 112 0 41 -7 46 -52 35 -95 -24 -116
59 -35 139 59 60 69 63 103 29z m-796 -100 c0 -41 166 -196 210 -196 23 0 73
-32 111 -72 140 -146 266 -165 455 -71 239 120 253 108 221 -189 -46 -428
-323 -788 -606 -788 -74 0 -75 1 -64 65 37 209 35 299 -9 475 -5 17 5 30 20
30 63 0 101 -252 59 -393 -36 -119 -5 -135 133 -68 215 105 348 307 375 571
21 203 23 212 55 250 23 28 23 36 -1 51 -56 35 -128 6 -109 -44 23 -60 -196
-185 -405 -232 -25 -5 -50 -18 -56 -27 -6 -10 -27 -18 -47 -18 -258 0 -541
-424 -429 -644 97 -192 -286 104 -445 344 -177 266 -136 521 121 756 164 150
411 270 411 200z m819 -682 c-42 -176 -201 -454 -261 -454 -24 0 -23 138 1
212 11 32 22 103 25 158 l6 100 120 64 c136 72 143 66 109 -80z m-3421 -599
c-33 -59 -78 -104 -78 -76 0 32 61 121 83 121 10 0 8 -20 -5 -45z m338 -130
c29 -4 65 -21 78 -38 13 -17 32 -26 42 -20 22 14 119 -85 125 -127 9 -66 -3
-80 -69 -80 -37 0 -100 14 -140 30 -157 66 -66 -73 164 -249 94 -72 99 -113
29 -251 -47 -92 -76 -106 -135 -63 -35 26 -34 30 23 86 33 33 61 77 62 98 4
66 -15 129 -38 129 -13 0 -16 -19 -9 -49 26 -104 -65 -191 -202 -191 -78 0
-86 -32 -16 -64 28 -12 50 -35 50 -50 0 -16 7 -24 16 -19 23 15 145 -49 133
-69 -6 -10 -25 -18 -41 -18 -17 0 -25 8 -19 19 6 10 2 24 -9 31 -11 7 -28 -8
-38 -34 -44 -115 -103 -131 -307 -84 -74 17 -77 -70 -4 -157 63 -74 58 -90
-49 -162 -47 -32 -90 -71 -96 -87 -14 -36 210 -266 259 -266 19 0 35 -8 35
-17 0 -10 61 -47 135 -82 74 -36 140 -71 145 -78 6 -7 44 -31 86 -53 43 -22
126 -92 187 -155 142 -148 138 -151 130 99 -12 362 117 608 441 843 70 51 135
120 168 178 130 228 308 467 308 413 0 -12 -18 -38 -40 -58 -22 -20 -40 -48
-40 -63 0 -15 -7 -27 -16 -27 -25 0 -224 -365 -224 -411 0 -16 -14 -29 -31
-29 -71 0 -303 -202 -403 -350 -36 -53 -56 -121 -76 -260 -3 -22 -17 -110 -31
-196 -19 -118 -19 -162 -2 -179 17 -17 23 -16 23 4 0 182 281 506 359 413 57
-69 10 -440 -62 -484 -33 -20 -19 -93 15 -80 78 30 189 36 218 12 57 -48 25
-220 -41 -220 -17 0 -77 -24 -135 -54 -106 -55 -116 -59 -158 -63 -13 -2 -7
-17 15 -35 34 -27 35 -30 3 -20 -45 14 -142 -70 -177 -155 -45 -110 -217 -215
-217 -132 0 22 23 59 50 83 28 24 50 60 50 80 0 39 -30 49 -50 16 -26 -41
-175 -103 -221 -92 -51 13 -276 -38 -285 -65 -6 -20 -104 -5 -104 15 0 34 65
100 105 106 59 8 63 85 5 88 -63 2 -170 30 -173 45 -20 109 -5 120 118 84 98
-28 99 9 2 97 -80 72 -83 79 -51 111 36 36 5 137 -47 155 -12 4 -24 43 -26 87
-3 74 -7 80 -54 73 -45 -7 -55 3 -75 72 -14 44 -38 85 -55 92 -18 6 -26 21
-19 32 7 11 3 20 -9 20 -11 0 -21 16 -21 37 0 20 -7 43 -15 51 -8 9 -16 21
-16 29 -7 61 -55 182 -69 173 -10 -6 -16 46 -14 118 2 70 -3 118 -11 105 -8
-13 -11 27 -5 87 6 61 15 214 21 340 13 279 27 397 51 411 10 6 18 38 18 70 0
33 9 59 20 59 11 0 20 20 20 45 0 25 19 75 41 112 23 37 36 73 30 79 -6 6 5
28 24 49 19 22 32 45 28 52 -14 29 58 53 76 25 15 -24 23 -23 51 5 24 24 26
33 6 33 -21 1 -20 4 1 18 19 12 44 3 76 -24 26 -23 73 -45 103 -49z m371 -389
c-26 -91 -76 -85 -162 18 l-69 85 76 -3 c46 -2 79 7 84 23 22 65 91 -54 71
-123z m-995 -116 c-36 -135 -42 -73 -7 78 14 60 28 92 31 70 3 -21 -8 -88 -24
-148z m1095 65 c-7 -30 -30 -79 -50 -108 -20 -29 -37 -63 -37 -76 0 -43 -82
-266 -108 -292 -65 -65 -78 8 -14 88 46 59 67 110 76 187 8 71 25 115 50 133
21 15 47 49 57 75 25 65 43 61 26 -7z m4513 15 c0 -11 -7 -20 -17 -20 -16 0
-19 -13 -28 -99 -2 -21 -11 -34 -19 -28 -9 5 -16 -4 -16 -21 0 -16 9 -35 20
-42 11 -7 20 -39 20 -72 0 -57 -2 -59 -42 -31 -97 68 -160 249 -77 223 39 -13
43 -9 35 37 -8 40 -1 53 32 59 76 15 92 14 92 -6z m309 -101 c128 -48 453
-357 518 -492 63 -130 68 -137 96 -128 180 57 504 -104 418 -208 -24 -28 8
-69 33 -43 7 6 42 -7 79 -30 36 -22 76 -35 89 -27 15 9 18 1 10 -26 -14 -42
36 -80 58 -45 12 20 102 -11 147 -51 39 -35 -50 -122 -144 -140 -89 -16 -109
-50 -66 -110 22 -32 25 -57 12 -91 -14 -37 -11 -48 11 -48 17 0 30 -10 30 -22
0 -12 -13 -17 -30 -11 -16 7 -30 3 -30 -8 0 -10 9 -19 20 -19 11 0 20 -10 20
-21 0 -12 -20 -8 -44 10 -50 35 -135 42 -138 11 -2 -11 -4 -28 -5 -38 -5 -31
-33 -50 -33 -22 0 15 -6 20 -14 13 -8 -8 -14 -78 -15 -157 -1 -103 -9 -145
-29 -152 -22 -7 -26 12 -18 92 9 95 7 101 -27 82 -20 -11 -37 -26 -37 -35 0
-9 -42 -81 -92 -160 -120 -187 -146 -175 -46 22 10 19 18 46 18 59 0 14 33 91
73 171 40 80 68 151 62 157 -17 17 -95 -67 -95 -103 0 -17 -7 -27 -17 -21 -16
10 -22 -16 -24 -93 -1 -20 -10 -31 -20 -24 -11 6 -19 -5 -19 -26 0 -21 -18
-57 -40 -80 -22 -24 -40 -52 -40 -62 0 -10 -18 -23 -41 -29 -22 -6 -38 -18
-36 -27 5 -23 -23 -90 -53 -127 -14 -16 -31 -56 -38 -87 -9 -39 -23 -53 -43
-45 -18 6 -29 -1 -29 -20 0 -19 10 -25 25 -16 14 8 2 -7 -25 -34 -28 -26 -63
-86 -79 -133 -15 -47 -39 -85 -54 -85 -15 0 -25 -7 -22 -15 2 -8 -21 -41 -50
-73 -30 -32 -55 -46 -55 -32 0 15 -6 21 -13 14 -7 -7 -1 -27 14 -45 14 -17 17
-30 7 -28 -39 8 -68 -2 -68 -22 0 -12 9 -16 20 -9 46 29 18 -20 -65 -111 -19
-22 -35 -55 -35 -74 -2 -159 -392 -295 -591 -207 -102 46 -101 41 -52 138 57
114 70 184 33 184 -16 0 -30 -14 -30 -31 0 -41 -81 -149 -111 -149 -33 0 -51
106 -22 125 14 9 6 15 -19 15 -24 0 -76 30 -115 66 l-73 67 29 108 c26 97 26
111 -2 129 -102 66 -100 62 -61 134 123 231 246 250 374 56 17 -25 39 -55 51
-67 11 -13 52 -68 89 -123 38 -55 84 -117 104 -139 20 -21 36 -46 36 -55 0 -9
14 -16 30 -16 37 0 38 21 2 93 -125 251 -123 372 5 398 29 6 83 24 119 40 36
16 80 29 97 29 164 0 231 81 270 325 13 80 31 156 41 169 30 38 76 7 76 -51 1
-49 36 -132 42 -98 2 8 5 22 6 30 2 8 11 60 19 115 36 232 142 436 271 520
112 73 78 112 -53 61 -201 -79 -565 -82 -755 -6 -278 110 -544 521 -499 772 8
45 5 63 -10 54 -11 -7 -21 -4 -21 7 0 39 33 38 119 -5 92 -47 128 -93 71 -93
-18 0 -27 9 -20 20 7 11 3 20 -9 20 -52 0 -13 -44 74 -83 52 -23 111 -50 130
-60 19 -9 81 -17 138 -17 l103 0 -113 119 c-136 142 -152 212 -66 283 57 48
127 47 262 -3z m-5942 -929 l12 -100 -23 80 c-12 44 -24 247 -26 450 l-3 370
14 -350 c8 -192 20 -395 26 -450z m2333 770 c-16 -11 -22 -20 -13 -20 10 0 8
-13 -5 -28 -24 -29 -128 -58 -111 -30 5 8 1 21 -11 28 -11 7 -20 3 -20 -9 0
-11 -9 -21 -21 -21 -14 0 -14 12 0 37 11 21 14 43 7 50 -7 7 36 13 96 13 77
-1 99 -6 78 -20z m151 -90 c-6 -22 -11 -57 -11 -78 0 -86 -27 -5 -29 89 -1 87
2 96 25 65 14 -20 21 -54 15 -76z m-370 -78 c-13 -34 -30 -49 -44 -40 -16 10
-20 4 -12 -16 7 -17 -1 -50 -18 -74 -18 -26 -21 -42 -7 -42 14 0 12 -10 -4
-28 -22 -24 -28 -23 -38 5 -15 41 0 87 24 72 17 -11 26 55 19 141 -2 31 2 34
16 12 25 -36 69 -7 53 35 -9 24 -6 27 10 11 15 -15 15 -38 1 -76z m521 23 c-1
-8 -2 -32 -2 -53 0 -43 -57 -73 -85 -45 -22 22 40 128 69 118 11 -3 18 -13 18
-20z m469 -162 c0 -12 12 -21 26 -18 65 14 123 -125 123 -295 0 -123 12 -151
48 -114 66 67 88 121 78 186 -15 93 25 88 65 -7 17 -41 51 -96 75 -122 l44
-47 -123 -113 -124 -113 19 -90 c10 -49 24 -126 31 -170 7 -44 19 -89 26 -100
8 -11 26 -74 41 -140 14 -66 34 -129 43 -139 9 -10 17 -39 17 -64 0 -24 9 -50
20 -57 11 -7 20 -25 20 -41 0 -16 17 -68 38 -114 69 -155 73 -143 -110 -340
-206 -224 -182 -214 -290 -111 -50 48 -133 125 -186 174 -95 85 -96 89 -76
160 12 39 32 117 45 172 12 55 30 123 39 150 8 28 27 91 41 140 14 50 47 138
74 197 26 59 53 138 59 175 6 37 17 68 25 68 68 0 61 148 -15 306 -43 90 -85
205 -93 254 -8 50 -19 116 -24 147 -11 63 6 126 28 104 8 -8 15 -25 16 -38z
m961 -106 c6 -50 -45 -145 -77 -146 -8 -1 -16 15 -17 34 -3 33 -3 33 -12 0 -5
-19 -21 -35 -35 -35 -15 0 -32 -14 -39 -31 -6 -17 -20 -26 -30 -20 -10 6 -32
-2 -49 -19 -43 -43 -62 0 -24 54 17 25 31 60 31 79 0 46 35 66 68 38 27 -21
92 -10 92 17 0 21 68 100 78 91 5 -5 11 -33 14 -62z m-2092 -27 c0 -32 -7 -62
-17 -68 -48 -30 -86 -368 -63 -572 16 -146 15 -152 -37 -207 -148 -158 -224
-155 -146 5 22 45 33 82 25 82 -8 0 -13 41 -10 90 3 59 -3 90 -19 90 -13 0
-35 18 -48 40 -14 22 -37 40 -52 40 -61 0 -133 125 -88 153 14 8 15 3 5 -15
-9 -15 -9 -21 0 -13 9 8 26 34 38 57 12 24 29 42 37 40 16 -3 59 29 101 74 58
65 92 97 152 148 35 30 65 61 65 70 9 83 57 71 57 -14z m-1480 -41 c0 -9 20
-19 44 -23 44 -6 43 -8 -16 -74 -70 -78 -113 -70 -95 19 8 37 4 59 -10 59 -13
0 -23 12 -23 27 0 18 16 24 50 18 28 -5 50 -17 50 -26z m2487 -14 c8 -29 6
-86 -5 -169 -4 -30 -61 9 -74 51 -7 24 -23 50 -36 58 -15 10 -15 14 3 15 14 0
25 13 25 28 0 26 26 46 64 50 7 1 18 -14 23 -33z m-2577 -185 c-15 -49 17 -52
97 -10 81 42 113 38 113 -16 0 -25 15 -67 33 -93 25 -35 26 -43 5 -31 -15 9 2
-16 39 -55 38 -40 80 -67 95 -61 26 9 38 -17 29 -62 -2 -10 9 -26 23 -35 71
-45 -34 -10 -133 44 -61 34 -119 56 -129 50 -10 -6 -23 2 -29 18 -6 16 0 33
13 38 13 5 -3 11 -36 12 -71 2 -96 17 -126 73 -30 58 -46 152 -23 137 11 -6
19 -2 19 10 0 11 5 21 11 21 7 0 6 -18 -1 -40z m2622 -90 c-7 -27 -4 -50 6
-50 11 0 23 16 28 35 5 19 10 5 12 -32 1 -51 9 -64 32 -56 42 16 59 -69 30
-156 -13 -39 -31 -71 -42 -71 -10 0 -18 -20 -18 -45 -1 -25 -18 -67 -40 -95
-44 -57 -49 -41 -19 60 50 168 53 291 9 340 -25 28 -22 120 5 120 5 0 4 -22
-3 -50z m-1058 -235 c-4 -36 -8 -11 -8 55 0 66 4 95 8 65 5 -30 5 -84 0 -120z
m4432 6 c-20 -78 -184 -140 -370 -141 -91 0 -93 2 -92 60 1 33 7 61 14 62 7 1
48 5 92 9 185 16 277 29 286 39 29 29 80 8 70 -29z m-5423 -75 c25 -22 37 -23
48 -5 17 28 67 -49 68 -106 1 -50 -33 -43 -90 18 -39 42 -49 46 -49 19 0 -19
-9 -29 -19 -23 -11 7 -14 27 -7 45 10 26 3 30 -39 19 -63 -16 -94 18 -34 37
35 11 37 18 15 45 -31 38 49 1 107 -49z m4258 -27 c52 -45 59 -58 27 -50 -48
13 -89 -27 -127 -124 -14 -35 -34 -59 -45 -53 -10 7 -17 0 -14 -15 6 -37 -20
-95 -76 -169 -45 -61 -63 -121 -29 -100 10 6 13 -12 7 -40 -11 -60 -60 -86
-86 -46 -13 21 -17 18 -18 -15 0 -23 -14 -54 -32 -68 -20 -17 -28 -48 -23 -86
8 -54 7 -56 -18 -22 -24 33 -27 33 -27 3 0 -19 -11 -32 -24 -29 -13 3 -46 -40
-73 -95 -37 -74 -52 -90 -59 -62 -4 20 4 59 18 86 19 36 20 52 3 63 -12 7 -25
36 -29 63 -4 28 -15 63 -25 78 -12 19 -10 24 6 14 14 -9 23 -1 23 18 0 18 -8
27 -18 21 -9 -6 -22 7 -28 29 -7 27 3 48 28 61 21 11 63 45 94 75 31 30 87 81
125 114 97 85 198 211 279 345 48 80 55 80 141 4z m-1765 -17 c16 -46 15 -61
-8 -70 -21 -8 -28 7 -28 59 0 84 10 87 36 11z m2088 -65 c18 -9 111 -17 207
-17 l173 0 -13 -75 c-7 -41 -20 -142 -30 -225 -44 -376 -101 -409 -381 -222
-256 171 -361 104 -611 -393 -129 -255 -131 -349 -13 -464 46 -44 84 -94 84
-110 0 -45 160 -188 218 -195 28 -3 54 -21 58 -38 6 -35 -37 -41 -514 -71
l-208 -13 14 48 c8 26 20 91 26 143 6 53 19 101 29 107 9 6 17 30 17 54 0 142
377 913 465 951 8 3 15 18 15 33 0 15 7 30 16 33 24 10 144 190 144 216 0 11
9 21 20 21 11 0 20 9 20 19 0 165 133 265 264 198z m756 -28 c0 -18 -44 -96
-68 -120 -39 -39 -139 -56 -126 -21 8 18 -2 35 -25 42 -58 18 -67 68 -15 79
24 5 62 13 84 18 63 13 150 14 150 2z m-4343 -186 c32 -106 29 -163 -7 -163
-16 0 -30 8 -30 19 0 10 -40 25 -90 32 -109 16 -110 20 -15 113 95 94 113 94
142 -1z m3512 -577 c6 -33 0 -39 -31 -31 -27 7 -38 27 -38 72 0 71 53 40 69
-41z m-2081 -533 c-10 -26 -19 -29 -40 -11 -22 18 -28 16 -28 -10 0 -43 -116
-44 -133 -1 -17 44 9 61 50 35 28 -17 46 -14 84 15 53 40 88 26 67 -28z"/>
<path d="M4442 5992 c-47 -50 -53 -72 -20 -72 27 0 138 78 138 97 0 33 -79 17
-118 -25z"/>
<path d="M4680 5910 c-28 -33 21 -110 70 -110 12 0 58 -27 101 -59 137 -104
137 -66 0 69 -149 147 -138 140 -171 100z"/>
<path d="M4140 5680 c-147 -48 -291 -156 -256 -191 4 -4 79 28 167 72 87 43
175 79 194 79 19 0 35 14 35 30 0 33 -58 37 -140 10z"/>
<path d="M4952 5587 c-7 -23 -40 -54 -72 -67 -58 -24 -64 -60 -10 -60 33 0
150 96 150 123 0 11 -8 14 -18 8 -10 -6 -22 0 -27 14 -5 15 -14 7 -23 -18z"/>
<path d="M5290 4839 c-7 -10 6 -38 29 -63 23 -24 41 -54 41 -67 0 -12 17 -38
38 -57 37 -34 37 -31 -2 75 -39 107 -82 152 -106 112z"/>
<path d="M5220 4548 c0 -7 12 -40 27 -75 46 -109 70 -198 94 -363 31 -212 41
-235 61 -150 30 124 -38 492 -106 575 -21 25 -76 35 -76 13z"/>
<path d="M5495 4424 c-6 -23 2 -79 17 -125 35 -99 46 -558 20 -787 -22 -193 5
-192 69 3 42 127 71 435 38 415 -7 -5 -28 70 -45 166 -46 252 -85 382 -99 328z"/>
<path d="M4770 4281 c-5 -10 -1 -41 10 -71 11 -29 20 -117 21 -196 l1 -144 38
70 c69 126 2 456 -70 341z"/>
<path d="M3505 3571 c-58 -59 -105 -117 -105 -130 0 -13 -10 -17 -21 -10 -15
9 -19 -17 -14 -79 8 -94 39 -130 52 -61 4 22 20 57 35 78 16 22 28 56 28 75 0
20 9 36 20 36 11 0 20 15 20 34 0 19 24 59 54 90 29 30 49 60 44 65 -5 4 -56
-39 -113 -98z"/>
<path d="M3985 3560 c-44 -142 -19 -260 32 -148 26 56 31 228 8 228 -8 0 -26
-36 -40 -80z"/>
<path d="M4485 3494 c5 -35 3 -119 -3 -187 -13 -120 13 -153 62 -79 28 42 107
21 171 -46 l65 -68 0 55 c0 67 -23 111 -132 253 -105 138 -178 169 -163 72z"/>
<path d="M4800 3486 c0 -32 7 -66 15 -74 8 -8 24 -61 35 -117 19 -97 70 -144
101 -93 6 10 46 18 89 18 43 0 83 9 90 20 19 30 155 23 199 -11 114 -86 92 36
-33 186 -129 155 -162 161 -144 28 15 -114 -14 -183 -76 -183 -45 0 -196 144
-196 188 0 14 -18 42 -40 62 -39 35 -40 35 -40 -24z"/>
<path d="M3624 3455 c-13 -25 -33 -67 -44 -95 -11 -27 -42 -88 -68 -134 -26
-46 -43 -89 -36 -95 20 -20 44 -11 44 17 0 35 96 60 129 33 13 -11 29 -16 35
-11 5 6 26 -8 46 -30 20 -22 48 -40 63 -40 15 0 27 -10 27 -23 0 -13 6 -18 13
-10 7 7 26 -5 41 -27 114 -163 360 -76 309 108 -10 38 -14 74 -8 81 7 6 -3 11
-22 11 -21 0 -33 -16 -33 -47 0 -196 -153 -273 -192 -97 -33 151 -68 191 -89
102 -28 -120 -98 -31 -141 178 -28 135 -39 147 -74 79z"/>
<path d="M3333 4967 c-36 -37 -11 -87 45 -87 61 0 114 45 93 79 -15 23 -117
29 -138 8z"/>
<path d="M3560 4865 c-1 -68 -184 -101 -245 -45 -53 50 -102 38 -192 -47 -197
-187 -166 -537 71 -801 85 -95 87 -92 50 47 -18 65 -39 114 -48 109 -9 -6 -16
-3 -17 6 -3 70 -26 179 -41 195 -27 28 -22 83 9 109 16 13 34 84 42 162 14
143 19 153 70 121 20 -13 35 -11 45 5 12 18 15 18 16 -1 0 -17 14 -19 45 -7
25 9 81 15 125 12 69 -4 80 2 82 38 1 23 8 58 17 77 9 22 7 35 -7 35 -12 0
-22 -7 -22 -15z"/>
<path d="M5686 553 c48 -85 111 -113 129 -58 5 14 -6 25 -23 25 -18 0 -32 7
-32 15 0 8 -22 25 -49 37 -45 22 -47 20 -25 -19z"/>
<path d="M3733 1747 c-19 -135 -16 -243 7 -257 11 -7 21 4 21 24 1 20 8 101
16 181 17 166 -22 212 -44 52z"/>
</g>
</svg>
